<?xml version="1.0" standalone="no"?>
<svg xmlns="http://www.w3.org/2000/svg" viewBox="0 0 217.211 29" width="217.211" height="29"><g fill="#52a5cc" color="#52a5cc" transform="translate(0, 0) scale(0.29)"><svg width="86.381" height="100.0" x="0.0" y="0.0" viewBox="0 0 86.381 100"><path fill="currentColor" d="M85.299,20.57c-0.684-0.532-1.556-0.654-2.326-0.319L45.799,36.348c-1.616,0.703-3.639,1.042-5.717,1.042  c-2.897,0.008-5.895-0.667-7.984-1.586c-0.748-0.319-1.372-0.678-1.813-0.998c0.162-0.079,0.346-0.162,0.562-0.246l33.818-14.637  l5.047,2.159v-6.308c0-0.939-0.398-1.829-1.082-2.354c-0.685-0.532-1.56-0.654-2.322-0.319L29.1,29.196  c-1.146,0.466-2.131,1.031-2.967,1.86c-0.819,0.801-1.527,2.124-1.516,3.593c0,0.04,0.011,0.105,0.011,0.105v56.681  c0,0.022-0.007,0.049-0.007,0.075c0,0.019,0.007,0.026,0.007,0.045v0.061h0.008c0.083,2.007,1.078,3.288,2.033,4.134  c3.004,2.648,8.046,4.13,13.407,4.25c2.54,0,5.12-0.402,7.502-1.409l37.182-16.114c0.984-0.402,1.623-1.473,1.623-2.649V22.928  C86.381,21.99,85.976,21.102,85.299,20.57z"></path><path fill="currentColor" d="M61.722,9.794c-0.067-0.849-0.413-1.65-1.045-2.138c-0.68-0.532-1.556-0.654-2.33-0.319L21.176,23.433  c-1.616,0.699-3.643,1.043-5.718,1.043c-2.897,0.004-5.896-0.671-7.985-1.589c-0.742-0.316-1.37-0.675-1.812-0.994  c0.162-0.081,0.35-0.162,0.562-0.246L40.037,7.009l5.04,2.159V2.86c0-0.939-0.408-1.828-1.092-2.354  c-0.678-0.532-1.567-0.656-2.332-0.319L4.479,16.282c-1.146,0.462-2.127,1.028-2.963,1.86C0.693,18.943-0.011,20.266,0,21.737  c0,0.041,0.011,0.103,0.011,0.103v56.683c0,0.022-0.004,0.053-0.004,0.075c0,0.015,0.004,0.022,0.004,0.082v0.075h0.007  c0.081,2.007,1.079,3.288,2.033,4.123c3.004,2.649,8.046,4.085,13.41,4.22c1.447,0,2.901-0.188,4.333-0.458V34.769  c-0.038-2.694,1.039-5.28,2.933-7.142c1.227-1.212,2.724-2.17,4.579-2.909L61.722,9.794z"></path></svg></g><line x1="37.051" y1="1" x2="37.051" y2="28" stroke="#5f5f5f" stroke-linecap="round"></line><path fill="#5f5f5f" fill-rule="nonzero" d="M10.99 0.91Q12.24 0.91 13.28 1.43Q14.33 1.94 14.94 2.88Q15.55 3.82 15.55 4.97L15.55 4.97Q15.55 8.02 12.79 8.81L12.79 8.81L12.79 8.90Q15.94 9.62 15.94 13.03L15.94 13.03Q15.94 14.33 15.30 15.32Q14.66 16.32 13.56 16.87Q12.46 17.42 11.14 17.42L11.14 17.42L0 17.42L0 0.91L10.99 0.91ZM5.30 4.54L5.30 7.34L8.95 7.34Q9.48 7.34 9.83 6.97Q10.18 6.60 10.18 6.05L10.18 6.05L10.18 5.81Q10.18 5.28 9.82 4.91Q9.46 4.54 8.95 4.54L8.95 4.54L5.30 4.54ZM5.30 10.75L5.30 13.58L9.34 13.58Q9.86 13.58 10.21 13.21Q10.56 12.84 10.56 12.29L10.56 12.29L10.56 12.05Q10.56 11.50 10.21 11.12Q9.86 10.75 9.34 10.75L9.34 10.75L5.30 10.75ZM24.89 4.46Q28.22 4.46 30.13 6.16Q32.04 7.85 32.04 11.09L32.04 11.09Q32.04 14.33 30.13 16.02Q28.22 17.71 24.89 17.71L24.89 17.71Q21.55 17.71 19.66 16.03Q17.76 14.35 17.76 11.09L17.76 11.09Q17.76 7.82 19.66 6.14Q21.55 4.46 24.89 4.46L24.89 4.46ZM24.89 7.70Q22.54 7.70 22.54 10.42L22.54 10.42L22.54 11.78Q22.54 14.47 24.89 14.47L24.89 14.47Q27.26 14.47 27.26 11.78L27.26 11.78L27.26 10.42Q27.26 7.70 24.89 7.70L24.89 7.70ZM40.90 4.46Q44.23 4.46 46.14 6.16Q48.05 7.85 48.05 11.09L48.05 11.09Q48.05 14.33 46.14 16.02Q44.23 17.71 40.90 17.71L40.90 17.71Q37.56 17.71 35.66 16.03Q33.77 14.35 33.77 11.09L33.77 11.09Q33.77 7.82 35.66 6.14Q37.56 4.46 40.90 4.46L40.90 4.46ZM40.90 7.70Q38.54 7.70 38.54 10.42L38.54 10.42L38.54 11.78Q38.54 14.47 40.90 14.47L40.90 14.47Q43.27 14.47 43.27 11.78L43.27 11.78L43.27 10.42Q43.27 7.70 40.90 7.70L40.90 7.70ZM55.13 9.60L59.18 4.75L64.75 4.75L60.07 9.86L64.87 17.42L59.45 17.42L56.78 13.08L55.13 14.69L55.13 17.42L50.35 17.42L50.35 0L55.13 0L55.13 9.60ZM72.38 4.46Q74.93 4.46 76.69 5.46Q78.46 6.46 78.46 8.54L78.46 8.54L74.02 8.54Q74.02 7.85 73.39 7.56L73.39 7.56Q72.96 7.32 72.31 7.32L72.31 7.32Q70.58 7.32 70.58 8.14L70.58 8.14Q70.58 8.59 71.18 8.78Q71.78 8.98 73.15 9.19L73.15 9.19Q74.83 9.43 75.96 9.76Q77.09 10.08 77.93 10.91Q78.77 11.74 78.77 13.22L78.77 13.22Q78.77 15.65 76.96 16.68Q75.14 17.71 72.22 17.71L72.22 17.71Q70.54 17.71 69.05 17.24Q67.56 16.78 66.62 15.79Q65.69 14.81 65.69 13.30L65.69 13.30L70.13 13.30L70.13 13.39Q70.15 14.21 70.81 14.53Q71.47 14.86 72.22 14.86L72.22 14.86Q74.21 14.86 74.21 13.92L74.21 13.92Q74.21 13.44 73.58 13.22Q72.96 13.01 71.54 12.77L71.54 12.77Q69.84 12.48 68.75 12.14Q67.66 11.81 66.84 11.00Q66.02 10.20 66.02 8.76L66.02 8.76Q66.02 6.43 67.79 5.45Q69.55 4.46 72.38 4.46L72.38 4.46ZM89.35 17.42L89.35 0.91L102.70 0.91L102.70 4.87L94.66 4.87L94.66 7.70L101.57 7.70L101.57 11.50L94.66 11.50L94.66 17.42L89.35 17.42ZM109.97 3.26L105.19 3.26L105.19 0.02L109.97 0.02L109.97 3.26ZM109.97 17.42L105.19 17.42L105.19 4.75L109.97 4.75L109.97 17.42ZM121.75 4.46Q123.96 4.46 125.06 5.69Q126.17 6.91 126.17 9.22L126.17 9.22L126.17 17.42L121.39 17.42L121.39 9.79Q121.39 8.98 120.97 8.48Q120.55 7.99 119.78 7.99L119.78 7.99Q118.90 7.99 118.34 8.57Q117.79 9.14 117.79 9.98L117.79 9.98L117.79 17.42L113.02 17.42L113.02 4.75L116.93 4.75L117.24 6.67Q117.98 5.66 119.20 5.06Q120.41 4.46 121.75 4.46L121.75 4.46ZM142.13 17.42L138.24 17.42L137.83 15.62Q136.44 17.71 133.80 17.71L133.80 17.71Q131.23 17.71 129.84 16.03Q128.45 14.35 128.45 11.06L128.45 11.06Q128.45 7.80 129.84 6.13Q131.23 4.46 133.80 4.46L133.80 4.46Q135.98 4.46 137.35 5.93L137.35 5.93L137.35 0.02L142.13 0.02L142.13 17.42ZM135.29 7.99Q133.22 7.99 133.22 10.46L133.22 10.46L133.22 11.74Q133.22 14.18 135.29 14.18L135.29 14.18Q136.34 14.18 136.87 13.44Q137.40 12.70 137.40 11.50L137.40 11.50L137.40 10.70Q137.40 9.50 136.87 8.75Q136.34 7.99 135.29 7.99L135.29 7.99ZM151.58 4.46Q155.06 4.46 156.90 6.10Q158.74 7.73 158.74 11.09L158.74 11.09L158.74 11.90L149.23 11.90Q149.23 13.27 149.84 13.97Q150.46 14.66 151.78 14.66L151.78 14.66Q152.98 14.66 153.54 14.16Q154.10 13.66 154.10 12.82L154.10 12.82L158.74 12.82Q158.74 15.12 156.98 16.42Q155.23 17.71 151.87 17.71L151.87 17.71Q148.34 17.71 146.40 16.07Q144.46 14.42 144.46 11.09L144.46 11.09Q144.46 7.82 146.35 6.14Q148.25 4.46 151.58 4.46L151.58 4.46ZM151.78 7.51Q149.52 7.51 149.26 9.65L149.26 9.65L153.91 9.65Q153.91 8.66 153.35 8.09Q152.78 7.51 151.78 7.51L151.78 7.51ZM168.74 4.44Q169.30 4.44 169.73 4.57Q170.16 4.70 170.16 4.73L170.16 4.73L170.16 8.74L168.62 8.74Q167.14 8.74 166.48 9.50Q165.82 10.27 165.82 11.78L165.82 11.78L165.82 17.42L161.04 17.42L161.04 4.75L164.95 4.75L165.26 6.67Q165.70 5.57 166.63 5.00Q167.57 4.44 168.74 4.44L168.74 4.44Z" transform="translate(47.051, 5.788)"></path></svg>